<mxfile host="65bd71144e">
    <diagram id="717gpFTgK5XZCm_36bYe" name="Page-1">
        <mxGraphModel dx="615" dy="572" grid="1" gridSize="10" guides="1" tooltips="1" connect="1" arrows="1" fold="1" page="1" pageScale="1" pageWidth="850" pageHeight="1100" math="0" shadow="0">
            <root>
                <mxCell id="0"/>
                <mxCell id="1" parent="0"/>
                <mxCell id="2" value="&lt;div style=&quot;color: rgb(212, 212, 212); background-color: rgb(30, 30, 30); font-family: Menlo, Monaco, &amp;quot;Courier New&amp;quot;, monospace; font-size: 14px; line-height: 21px;&quot;&gt;serialize_rules = (&lt;span style=&quot;color: #ce9178;&quot;&gt;'-created_at'&lt;/span&gt;, &lt;span style=&quot;color: #ce9178;&quot;&gt;'-updated_at'&lt;/span&gt;, &lt;span style=&quot;color: #ce9178;&quot;&gt;'-roles.production'&lt;/span&gt;)&lt;/div&gt;" style="text;html=1;align=center;verticalAlign=middle;resizable=0;points=[];autosize=1;strokeColor=none;fillColor=none;" parent="1" vertex="1">
                    <mxGeometry x="110" y="140" width="610" height="30" as="geometry"/>
                </mxCell>
                <mxCell id="3" value="&lt;div style=&quot;color: rgb(212, 212, 212); background-color: rgb(30, 30, 30); font-family: Menlo, Monaco, &amp;quot;Courier New&amp;quot;, monospace; font-size: 14px; line-height: 21px;&quot;&gt;serialize_rules = (&lt;span style=&quot;color: #ce9178;&quot;&gt;'-created_at'&lt;/span&gt;, &lt;span style=&quot;color: #ce9178;&quot;&gt;'-updated_at'&lt;/span&gt;, &lt;span style=&quot;color: #ce9178;&quot;&gt;'-production.roles'&lt;/span&gt;)&lt;/div&gt;" style="text;html=1;align=center;verticalAlign=middle;resizable=0;points=[];autosize=1;strokeColor=none;fillColor=none;" parent="1" vertex="1">
                    <mxGeometry x="120" y="330" width="610" height="30" as="geometry"/>
                </mxCell>
                <mxCell id="4" value="&lt;div style=&quot;color: rgb(212, 212, 212); background-color: rgb(30, 30, 30); font-family: Menlo, Monaco, &amp;quot;Courier New&amp;quot;, monospace; font-size: 14px; line-height: 21px;&quot;&gt;Production&lt;/div&gt;" style="text;html=1;align=center;verticalAlign=middle;resizable=0;points=[];autosize=1;strokeColor=none;fillColor=none;" parent="1" vertex="1">
                    <mxGeometry x="65" y="80" width="110" height="30" as="geometry"/>
                </mxCell>
                <mxCell id="5" value="&lt;div style=&quot;color: rgb(212, 212, 212); background-color: rgb(30, 30, 30); font-family: Menlo, Monaco, &amp;quot;Courier New&amp;quot;, monospace; font-size: 14px; line-height: 21px;&quot;&gt;&lt;div&gt;    roles = db.relationship(&lt;span style=&quot;color: #ce9178;&quot;&gt;'Role'&lt;/span&gt;, back_populates=&lt;span style=&quot;color: #ce9178;&quot;&gt;'production'&lt;/span&gt;)&lt;/div&gt;&lt;div&gt;&lt;/div&gt;&lt;/div&gt;" style="text;html=1;align=center;verticalAlign=middle;resizable=0;points=[];autosize=1;strokeColor=none;fillColor=none;" parent="1" vertex="1">
                    <mxGeometry x="110" y="120" width="530" height="30" as="geometry"/>
                </mxCell>
                <mxCell id="6" value="&lt;div style=&quot;color: rgb(212, 212, 212); background-color: rgb(30, 30, 30); font-family: Menlo, Monaco, &amp;quot;Courier New&amp;quot;, monospace; font-size: 14px; line-height: 21px;&quot;&gt;Role&lt;/div&gt;" style="text;html=1;align=center;verticalAlign=middle;resizable=0;points=[];autosize=1;strokeColor=none;fillColor=none;" parent="1" vertex="1">
                    <mxGeometry x="90" y="260" width="60" height="30" as="geometry"/>
                </mxCell>
                <mxCell id="7" value="&lt;div style=&quot;color: rgb(212, 212, 212); background-color: rgb(30, 30, 30); font-family: Menlo, Monaco, &amp;quot;Courier New&amp;quot;, monospace; font-size: 14px; line-height: 21px;&quot;&gt;&lt;div&gt;    production = db.relationship(&lt;span style=&quot;color: #ce9178;&quot;&gt;'Production'&lt;/span&gt;, back_populates=&lt;span style=&quot;color: #ce9178;&quot;&gt;'roles'&lt;/span&gt;)&lt;/div&gt;&lt;/div&gt;" style="text;html=1;align=center;verticalAlign=middle;resizable=0;points=[];autosize=1;strokeColor=none;fillColor=none;" parent="1" vertex="1">
                    <mxGeometry x="120" y="310" width="580" height="30" as="geometry"/>
                </mxCell>
                <mxCell id="8" value="&lt;div style=&quot;color: rgb(212, 212, 212); background-color: rgb(30, 30, 30); font-family: Menlo, Monaco, &amp;quot;Courier New&amp;quot;, monospace; font-size: 14px; line-height: 21px;&quot;&gt;&lt;div&gt;    __tablename__ = &lt;span style=&quot;color: #ce9178;&quot;&gt;&quot;productions&quot;&lt;/span&gt;&lt;/div&gt;&lt;/div&gt;" style="text;html=1;align=center;verticalAlign=middle;resizable=0;points=[];autosize=1;strokeColor=none;fillColor=none;" parent="1" vertex="1">
                    <mxGeometry x="110" y="100" width="270" height="30" as="geometry"/>
                </mxCell>
                <mxCell id="9" value="&lt;div style=&quot;color: rgb(212, 212, 212); background-color: rgb(30, 30, 30); font-family: Menlo, Monaco, &amp;quot;Courier New&amp;quot;, monospace; font-size: 14px; line-height: 21px;&quot;&gt;&lt;div&gt;    __tablename__ = &lt;span style=&quot;color: #ce9178;&quot;&gt;&quot;roles&quot;&lt;/span&gt;&lt;/div&gt;&lt;/div&gt;" style="text;html=1;align=center;verticalAlign=middle;resizable=0;points=[];autosize=1;strokeColor=none;fillColor=none;" parent="1" vertex="1">
                    <mxGeometry x="125" y="290" width="220" height="30" as="geometry"/>
                </mxCell>
                <mxCell id="12" value="" style="edgeStyle=none;orthogonalLoop=1;jettySize=auto;html=1;endArrow=classic;startArrow=classic;endSize=8;startSize=8;exitX=0.856;exitY=1.037;exitDx=0;exitDy=0;exitPerimeter=0;strokeColor=#F02626;" parent="1" source="2" edge="1">
                    <mxGeometry width="100" relative="1" as="geometry">
                        <mxPoint x="580" y="190" as="sourcePoint"/>
                        <mxPoint x="360" y="300" as="targetPoint"/>
                        <Array as="points">
                            <mxPoint x="632" y="210"/>
                            <mxPoint x="360" y="210"/>
                        </Array>
                    </mxGeometry>
                </mxCell>
                <mxCell id="14" value="" style="edgeStyle=none;orthogonalLoop=1;jettySize=auto;html=1;endArrow=classic;startArrow=classic;endSize=8;startSize=8;entryX=0.77;entryY=1;entryDx=0;entryDy=0;entryPerimeter=0;exitX=0.035;exitY=1.102;exitDx=0;exitDy=0;exitPerimeter=0;fillColor=#1D0707;strokeColor=#F02E2E;" parent="1" source="8" target="2" edge="1">
                    <mxGeometry width="100" relative="1" as="geometry">
                        <mxPoint x="100" y="180" as="sourcePoint"/>
                        <mxPoint x="620" y="180" as="targetPoint"/>
                        <Array as="points">
                            <mxPoint x="90" y="133"/>
                            <mxPoint x="90" y="190"/>
                            <mxPoint x="580" y="190"/>
                        </Array>
                    </mxGeometry>
                </mxCell>
                <mxCell id="15" value="" style="edgeStyle=none;orthogonalLoop=1;jettySize=auto;html=1;endArrow=classic;startArrow=classic;endSize=8;startSize=8;entryX=0.803;entryY=1.037;entryDx=0;entryDy=0;entryPerimeter=0;exitX=-0.001;exitY=0.444;exitDx=0;exitDy=0;exitPerimeter=0;strokeColor=#009900;" parent="1" source="7" target="3" edge="1">
                    <mxGeometry width="100" relative="1" as="geometry">
                        <mxPoint x="80" y="370" as="sourcePoint"/>
                        <mxPoint x="640" y="370" as="targetPoint"/>
                        <Array as="points">
                            <mxPoint x="90" y="323"/>
                            <mxPoint x="90" y="390"/>
                            <mxPoint x="610" y="390"/>
                        </Array>
                    </mxGeometry>
                </mxCell>
                <mxCell id="16" value="" style="edgeStyle=none;orthogonalLoop=1;jettySize=auto;html=1;endArrow=classic;startArrow=classic;endSize=8;startSize=8;exitX=0.923;exitY=1.074;exitDx=0;exitDy=0;exitPerimeter=0;strokeColor=#009900;" parent="1" source="3" target="5" edge="1">
                    <mxGeometry width="100" relative="1" as="geometry">
                        <mxPoint x="630" y="390" as="sourcePoint"/>
                        <mxPoint x="760" y="140" as="targetPoint"/>
                        <Array as="points">
                            <mxPoint x="683" y="390"/>
                            <mxPoint x="740" y="390"/>
                            <mxPoint x="740" y="135"/>
                        </Array>
                    </mxGeometry>
                </mxCell>
                <mxCell id="17" value="&lt;div style=&quot;color: rgb(212, 212, 212); background-color: rgb(30, 30, 30); font-family: Menlo, Monaco, &amp;quot;Courier New&amp;quot;, monospace; font-size: 14px; line-height: 21px;&quot;&gt;Production&lt;/div&gt;" style="text;html=1;align=center;verticalAlign=middle;resizable=0;points=[];autosize=1;strokeColor=none;fillColor=none;" parent="1" vertex="1">
                    <mxGeometry x="80" y="510" width="110" height="30" as="geometry"/>
                </mxCell>
                <mxCell id="18" value="&lt;div style=&quot;color: rgb(212, 212, 212); background-color: rgb(30, 30, 30); font-family: Menlo, Monaco, &amp;quot;Courier New&amp;quot;, monospace; font-size: 14px; line-height: 21px;&quot;&gt;Role&lt;/div&gt;" style="text;html=1;align=center;verticalAlign=middle;resizable=0;points=[];autosize=1;strokeColor=none;fillColor=none;" parent="1" vertex="1">
                    <mxGeometry x="90" y="670" width="60" height="30" as="geometry"/>
                </mxCell>
                <mxCell id="19" value="&lt;div style=&quot;color: rgb(212, 212, 212); background-color: rgb(30, 30, 30); font-family: Menlo, Monaco, &amp;quot;Courier New&amp;quot;, monospace; font-size: 14px; line-height: 21px;&quot;&gt;roles = db.relationship(&lt;span style=&quot;color: #ce9178;&quot;&gt;'Role'&lt;/span&gt;, back_populates=&lt;span style=&quot;color: #ce9178;&quot;&gt;'production'&lt;/span&gt;)&lt;/div&gt;" style="text;html=1;align=center;verticalAlign=middle;resizable=0;points=[];autosize=1;strokeColor=none;fillColor=none;" parent="1" vertex="1">
                    <mxGeometry x="120" y="540" width="530" height="30" as="geometry"/>
                </mxCell>
                <mxCell id="20" value="&lt;div style=&quot;color: rgb(212, 212, 212); background-color: rgb(30, 30, 30); font-family: Menlo, Monaco, &amp;quot;Courier New&amp;quot;, monospace; font-size: 14px; line-height: 21px;&quot;&gt;&lt;div&gt;    production = db.relationship(&lt;span style=&quot;color: #ce9178;&quot;&gt;'Production'&lt;/span&gt;, back_populates=&lt;span style=&quot;color: #ce9178;&quot;&gt;'roles'&lt;/span&gt;)&lt;/div&gt;&lt;/div&gt;" style="text;html=1;align=center;verticalAlign=middle;resizable=0;points=[];autosize=1;strokeColor=none;fillColor=none;" parent="1" vertex="1">
                    <mxGeometry x="125" y="700" width="580" height="30" as="geometry"/>
                </mxCell>
                <mxCell id="21" value="" style="edgeStyle=none;orthogonalLoop=1;jettySize=auto;html=1;endArrow=classic;startArrow=classic;endSize=8;startSize=8;strokeColor=#FF33FF;fillColor=#1D0707;entryX=0.865;entryY=1.141;entryDx=0;entryDy=0;entryPerimeter=0;exitX=0.084;exitY=0.004;exitDx=0;exitDy=0;exitPerimeter=0;" parent="1" source="20" target="19" edge="1">
                    <mxGeometry width="100" relative="1" as="geometry">
                        <mxPoint x="290" y="580" as="sourcePoint"/>
                        <mxPoint x="390" y="580" as="targetPoint"/>
                        <Array as="points">
                            <mxPoint x="174" y="600"/>
                            <mxPoint x="580" y="600"/>
                        </Array>
                    </mxGeometry>
                </mxCell>
                <mxCell id="23" value="" style="edgeStyle=none;orthogonalLoop=1;jettySize=auto;html=1;endArrow=classic;startArrow=classic;endSize=8;startSize=8;strokeColor=#FF9933;fillColor=#1D0707;exitX=0.941;exitY=1.067;exitDx=0;exitDy=0;exitPerimeter=0;" parent="1" source="20" target="19" edge="1">
                    <mxGeometry width="100" relative="1" as="geometry">
                        <mxPoint x="600" y="740" as="sourcePoint"/>
                        <mxPoint x="100" y="560" as="targetPoint"/>
                        <Array as="points">
                            <mxPoint x="670" y="770"/>
                            <mxPoint x="70" y="770"/>
                            <mxPoint x="70" y="560"/>
                        </Array>
                    </mxGeometry>
                </mxCell>
            </root>
        </mxGraphModel>
    </diagram>
    <diagram id="E-ukofZonBqx2N8wzAd3" name="association proxy">
        <mxGraphModel dx="828" dy="572" grid="1" gridSize="10" guides="1" tooltips="1" connect="1" arrows="1" fold="1" page="1" pageScale="1" pageWidth="850" pageHeight="1100" math="0" shadow="0">
            <root>
                <mxCell id="0"/>
                <mxCell id="1" parent="0"/>
                <mxCell id="MhJXe_zilQZ3dutRvV10-19" value="" style="whiteSpace=wrap;html=1;fillColor=#1A1A1A;strokeColor=none;" parent="1" vertex="1">
                    <mxGeometry x="182.5" y="185" width="637.5" height="125" as="geometry"/>
                </mxCell>
                <mxCell id="MhJXe_zilQZ3dutRvV10-17" value="" style="whiteSpace=wrap;html=1;fillColor=#330000;strokeColor=none;" parent="1" vertex="1">
                    <mxGeometry x="187.5" y="350" width="542.5" height="160" as="geometry"/>
                </mxCell>
                <mxCell id="MhJXe_zilQZ3dutRvV10-16" value="" style="whiteSpace=wrap;html=1;fillColor=#1A3300;strokeColor=none;" parent="1" vertex="1">
                    <mxGeometry x="190" y="40" width="560" height="120" as="geometry"/>
                </mxCell>
                <mxCell id="MhJXe_zilQZ3dutRvV10-1" value="&lt;div style=&quot;color: rgb(212, 212, 212); background-color: rgb(30, 30, 30); font-family: Menlo, Monaco, &amp;quot;Courier New&amp;quot;, monospace; font-size: 14px; line-height: 21px;&quot;&gt;Production&lt;/div&gt;" style="text;html=1;align=center;verticalAlign=middle;resizable=0;points=[];autosize=1;strokeColor=none;fillColor=none;" parent="1" vertex="1">
                    <mxGeometry x="187.5" y="50" width="110" height="30" as="geometry"/>
                </mxCell>
                <mxCell id="MhJXe_zilQZ3dutRvV10-2" value="&lt;div style=&quot;color: rgb(212, 212, 212); background-color: rgb(30, 30, 30); font-family: Menlo, Monaco, &amp;quot;Courier New&amp;quot;, monospace; font-size: 14px; line-height: 21px;&quot;&gt;Role&lt;/div&gt;" style="text;html=1;align=center;verticalAlign=middle;resizable=0;points=[];autosize=1;strokeColor=none;fillColor=none;" parent="1" vertex="1">
                    <mxGeometry x="187.5" y="200" width="60" height="30" as="geometry"/>
                </mxCell>
                <mxCell id="MhJXe_zilQZ3dutRvV10-3" value="&lt;div style=&quot;color: rgb(212, 212, 212); background-color: rgb(30, 30, 30); font-family: Menlo, Monaco, &amp;quot;Courier New&amp;quot;, monospace; font-size: 14px; line-height: 21px;&quot;&gt;prod_roles = db.relationship(&lt;span style=&quot;color: #ce9178;&quot;&gt;'Role'&lt;/span&gt;, back_populates=&lt;span style=&quot;color: #ce9178;&quot;&gt;'production'&lt;/span&gt;)&lt;/div&gt;" style="text;html=1;align=center;verticalAlign=middle;resizable=0;points=[];autosize=1;strokeColor=none;fillColor=none;" parent="1" vertex="1">
                    <mxGeometry x="227.5" y="70" width="570" height="30" as="geometry"/>
                </mxCell>
                <mxCell id="MhJXe_zilQZ3dutRvV10-4" value="&lt;div style=&quot;color: rgb(212, 212, 212); background-color: rgb(30, 30, 30); font-family: Menlo, Monaco, &amp;quot;Courier New&amp;quot;, monospace; font-size: 14px; line-height: 21px;&quot;&gt;&lt;div&gt;    production = db.relationship(&lt;span style=&quot;color: #ce9178;&quot;&gt;'Production'&lt;/span&gt;, back_populates=&lt;span style=&quot;color: #ce9178;&quot;&gt;'prod_roles'&lt;/span&gt;)&lt;/div&gt;&lt;/div&gt;" style="text;html=1;align=center;verticalAlign=middle;resizable=0;points=[];autosize=1;strokeColor=none;fillColor=none;" parent="1" vertex="1">
                    <mxGeometry x="202.5" y="260" width="620" height="30" as="geometry"/>
                </mxCell>
                <mxCell id="MhJXe_zilQZ3dutRvV10-7" value="&lt;div style=&quot;color: rgb(212, 212, 212); background-color: rgb(30, 30, 30); font-family: Menlo, Monaco, &amp;quot;Courier New&amp;quot;, monospace; font-size: 14px; line-height: 21px;&quot;&gt;Actor&lt;/div&gt;" style="text;html=1;align=center;verticalAlign=middle;resizable=0;points=[];autosize=1;strokeColor=none;fillColor=none;" parent="1" vertex="1">
                    <mxGeometry x="187.5" y="350" width="70" height="30" as="geometry"/>
                </mxCell>
                <mxCell id="MhJXe_zilQZ3dutRvV10-8" value="&lt;div style=&quot;color: rgb(212, 212, 212); background-color: rgb(30, 30, 30); font-family: Menlo, Monaco, &amp;quot;Courier New&amp;quot;, monospace; font-size: 14px; line-height: 21px;&quot;&gt;&lt;div&gt;actor_roles = db.relationship(&lt;span style=&quot;color: #ce9178;&quot;&gt;'Role'&lt;/span&gt;, back_populates=&lt;span style=&quot;color: #ce9178;&quot;&gt;'actor'&lt;/span&gt;)&lt;/div&gt;&lt;div&gt;&lt;/div&gt;&lt;/div&gt;" style="text;html=1;align=center;verticalAlign=middle;resizable=0;points=[];autosize=1;strokeColor=none;fillColor=none;" parent="1" vertex="1">
                    <mxGeometry x="222.5" y="380" width="540" height="30" as="geometry"/>
                </mxCell>
                <mxCell id="MhJXe_zilQZ3dutRvV10-9" value="&lt;div style=&quot;color: rgb(212, 212, 212); background-color: rgb(30, 30, 30); font-family: Menlo, Monaco, &amp;quot;Courier New&amp;quot;, monospace; font-size: 14px; line-height: 21px;&quot;&gt;&lt;div&gt;    productions = association_proxy(&lt;span style=&quot;color: #ce9178;&quot;&gt;'actor_roles'&lt;/span&gt;, &lt;span style=&quot;color: #ce9178;&quot;&gt;'production'&lt;/span&gt;)&lt;/div&gt;&lt;/div&gt;" style="text;html=1;align=center;verticalAlign=middle;resizable=0;points=[];autosize=1;strokeColor=none;fillColor=none;" parent="1" vertex="1">
                    <mxGeometry x="222.5" y="460" width="530" height="30" as="geometry"/>
                </mxCell>
                <mxCell id="MhJXe_zilQZ3dutRvV10-10" value="&lt;div style=&quot;color: rgb(212, 212, 212); background-color: rgb(30, 30, 30); font-family: Menlo, Monaco, &amp;quot;Courier New&amp;quot;, monospace; font-size: 14px; line-height: 21px;&quot;&gt;&lt;div&gt;    actors = association_proxy(&lt;span style=&quot;color: #ce9178;&quot;&gt;'prod_roles'&lt;/span&gt;, &lt;span style=&quot;color: #ce9178;&quot;&gt;'actor'&lt;/span&gt;)&lt;/div&gt;&lt;div&gt;&lt;/div&gt;&lt;/div&gt;" style="text;html=1;align=center;verticalAlign=middle;resizable=0;points=[];autosize=1;strokeColor=none;fillColor=none;" parent="1" vertex="1">
                    <mxGeometry x="227.5" y="120" width="440" height="30" as="geometry"/>
                </mxCell>
                <mxCell id="MhJXe_zilQZ3dutRvV10-11" value="&lt;div style=&quot;color: rgb(212, 212, 212); background-color: rgb(30, 30, 30); font-family: Menlo, Monaco, &amp;quot;Courier New&amp;quot;, monospace; font-size: 14px; line-height: 21px;&quot;&gt;&lt;div&gt;    actor = db.relationship(&lt;span style=&quot;color: #ce9178;&quot;&gt;'Actor'&lt;/span&gt;, back_populates=&lt;span style=&quot;color: #ce9178;&quot;&gt;'actor_roles'&lt;/span&gt;)&lt;/div&gt;&lt;/div&gt;" style="text;html=1;align=center;verticalAlign=middle;resizable=0;points=[];autosize=1;strokeColor=none;fillColor=none;" parent="1" vertex="1">
                    <mxGeometry x="197.5" y="230" width="550" height="30" as="geometry"/>
                </mxCell>
                <mxCell id="MhJXe_zilQZ3dutRvV10-12" value="" style="edgeStyle=none;orthogonalLoop=1;jettySize=auto;html=1;endArrow=classic;startArrow=classic;endSize=8;startSize=8;entryX=0.65;entryY=0.05;entryDx=0;entryDy=0;entryPerimeter=0;exitX=0.055;exitY=1.083;exitDx=0;exitDy=0;exitPerimeter=0;strokeColor=#F02222;" parent="1" source="MhJXe_zilQZ3dutRvV10-8" target="MhJXe_zilQZ3dutRvV10-9" edge="1">
                    <mxGeometry width="100" relative="1" as="geometry">
                        <mxPoint x="250" y="430" as="sourcePoint"/>
                        <mxPoint x="600" y="430" as="targetPoint"/>
                        <Array as="points">
                            <mxPoint x="250" y="440"/>
                            <mxPoint x="530" y="440"/>
                        </Array>
                    </mxGeometry>
                </mxCell>
                <mxCell id="MhJXe_zilQZ3dutRvV10-14" value="" style="edgeStyle=none;orthogonalLoop=1;jettySize=auto;html=1;endArrow=classic;startArrow=classic;endSize=8;startSize=8;strokeColor=#009900;exitX=0.041;exitY=1.006;exitDx=0;exitDy=0;exitPerimeter=0;entryX=0.667;entryY=0;entryDx=0;entryDy=0;entryPerimeter=0;" parent="1" source="MhJXe_zilQZ3dutRvV10-3" edge="1">
                    <mxGeometry width="100" relative="1" as="geometry">
                        <mxPoint x="187.5" y="230" as="sourcePoint"/>
                        <mxPoint x="497.6300000000001" y="120" as="targetPoint"/>
                        <Array as="points">
                            <mxPoint x="250" y="110"/>
                            <mxPoint x="250" y="120"/>
                            <mxPoint x="257.5" y="120"/>
                            <mxPoint x="347.5" y="120"/>
                            <mxPoint x="347.5" y="100"/>
                            <mxPoint x="497.5" y="100"/>
                        </Array>
                    </mxGeometry>
                </mxCell>
                <mxCell id="MhJXe_zilQZ3dutRvV10-21" value="" style="edgeStyle=none;orthogonalLoop=1;jettySize=auto;html=1;endArrow=classic;startArrow=classic;endSize=8;startSize=8;strokeColor=#009900;exitX=0.082;exitY=-0.067;exitDx=0;exitDy=0;exitPerimeter=0;entryX=0.899;entryY=0.961;entryDx=0;entryDy=0;entryPerimeter=0;" parent="1" source="MhJXe_zilQZ3dutRvV10-11" target="MhJXe_zilQZ3dutRvV10-10" edge="1">
                    <mxGeometry width="100" relative="1" as="geometry">
                        <mxPoint x="240" y="170" as="sourcePoint"/>
                        <mxPoint x="340" y="170" as="targetPoint"/>
                        <Array as="points">
                            <mxPoint x="270" y="200"/>
                            <mxPoint x="580" y="200"/>
                        </Array>
                    </mxGeometry>
                </mxCell>
                <mxCell id="zMmzmz3sSOHx2lzeh2wx-1" value="" style="edgeStyle=none;orthogonalLoop=1;jettySize=auto;html=1;endArrow=classic;startArrow=classic;endSize=8;startSize=8;exitX=0.878;exitY=1.033;exitDx=0;exitDy=0;exitPerimeter=0;entryX=0.031;entryY=1.067;entryDx=0;entryDy=0;entryPerimeter=0;strokeColor=#FF0000;" edge="1" parent="1" source="MhJXe_zilQZ3dutRvV10-9" target="MhJXe_zilQZ3dutRvV10-4">
                    <mxGeometry width="100" relative="1" as="geometry">
                        <mxPoint x="620" y="520" as="sourcePoint"/>
                        <mxPoint x="130" y="541" as="targetPoint"/>
                        <Array as="points">
                            <mxPoint x="700" y="580"/>
                            <mxPoint x="120" y="580"/>
                            <mxPoint x="130" y="290"/>
                        </Array>
                    </mxGeometry>
                </mxCell>
            </root>
        </mxGraphModel>
    </diagram>
</mxfile>